<svg t="1770961187281" class="icon" viewBox="0 0 1024 1024" version="1.1" xmlns="http://www.w3.org/2000/svg" p-id="1606" width="200" height="200"><path d="M736 651.648C736 741.76 645.984 832 512 832c-133.984 0-224-90.208-224-180.352 0-93.504 60.8-209.984 132.288-311.36a1544 1544 0 0 1 90.112-115.2 1906.848 1906.848 0 0 1 92.8 123.904c34.816 50.88 68.704 106.688 93.664 160.96C722.24 565.248 736 613.792 736 651.648z m-512 0c0-173.984 164.192-383.776 244.64-476.096C494.72 145.6 512 128 512 128s16.544 18.304 41.728 48.96C633.536 274.144 800 495.584 800 651.648 800 786.56 671.04 896 512 896s-288-109.408-288-244.352zM367.936 544h68.864c-12.96 29.568-20.8 57.6-20.8 81.472C416 662.08 451.84 704 512 704v64c-88.352 0-160-63.808-160-142.528 0-26.272 6.08-53.952 15.936-81.472z" p-id="1607"></path></svg>