<svg t="1770961291626" class="icon" viewBox="0 0 1024 1024" version="1.1" xmlns="http://www.w3.org/2000/svg" p-id="8413" width="200" height="200"><path d="M932.54139 841.08278q0 14.84694-10.82437 25.744447t-25.744447 10.82437l-263.953718 0q0.585101 9.727305 3.437469 50.026141t2.852368 62.020713q0 14.261838-10.312406 24.281694t-24.574245 10.019856l-182.844083 0q-14.261838 0-24.574245-10.019856t-10.312406-24.281694q0-21.721877 2.852368-62.020713t3.437469-50.026141l-263.953718 0q-14.84694 0-25.744447-10.82437t-10.82437-25.744447 10.82437-25.744447l229.725305-230.237269-130.843225 0q-14.84694 0-25.744447-10.82437t-10.82437-25.744447 10.82437-25.744447l229.725305-230.237269-112.558817 0q-14.84694 0-25.744447-10.82437t-10.82437-25.744447 10.82437-25.744447l219.412899-219.412899q10.82437-10.82437 25.744447-10.82437t25.744447 10.82437l219.412899 219.412899q10.82437 10.82437 10.82437 25.744447t-10.82437 25.744447-25.744447 10.82437l-112.558817 0 229.725305 230.237269q10.82437 10.82437 10.82437 25.744447t-10.82437 25.744447-25.744447 10.82437l-130.843225 0 229.725305 230.237269q10.82437 10.82437 10.82437 25.744447z" fill="#444444" p-id="8414"></path></svg>
